<?xml version="1.0" encoding="UTF-8"?>
<svg xmlns="http://www.w3.org/2000/svg" xmlns:xlink="http://www.w3.org/1999/xlink" width="1875pt" height="1875pt" viewBox="0 0 1875 1875" version="1.1">
<g id="surface1">
<path style=" stroke:none;fill-rule:evenodd;fill:rgb(0%,0%,0%);fill-opacity:1;" d="M 262.519531 952.355469 C 245.429688 993.957031 200.109375 998.414062 157.757812 998.414062 L 82.722656 998.414062 L 149.585938 823.078125 L 102.777344 823.078125 L 119.128906 780.726562 L 217.203125 780.726562 C 238.746094 780.726562 265.488281 782.214844 283.328125 801.53125 C 293.726562 812.679688 297.441406 829.761719 291.5 845.363281 C 284.066406 867.648438 266.976562 881.761719 245.441406 892.910156 C 263.261719 907.042969 270.691406 931.554688 262.519531 952.355469 Z M 218.679688 935.261719 C 220.167969 927.839844 219.429688 920.410156 214.972656 915.953125 C 208.28125 908.523438 201.597656 907.78125 179.304688 907.78125 L 167.417969 907.78125 L 148.097656 956.078125 C 165.929688 956.078125 188.222656 956.820312 198.621094 953.851562 C 211.996094 950.136719 217.203125 940.476562 218.679688 935.261719 Z M 242.453125 838.691406 C 242.453125 830.519531 238 823.085938 217.929688 823.085938 L 200.101562 823.085938 L 183.011719 865.441406 C 200.101562 865.441406 217.191406 865.441406 224.613281 862.464844 C 237.257812 856.519531 241.714844 847.601562 242.453125 838.691406 Z M 310.066406 960.523438 C 287.773438 993.21875 259.542969 998.421875 233.542969 998.421875 C 247.65625 991.738281 264.75 979.113281 270.691406 960.523438 Z M 310.066406 960.523438 "/>
<path style=" stroke:none;fill-rule:evenodd;fill:rgb(0%,0%,0%);fill-opacity:1;" d="M 428.945312 868.40625 L 472.777344 868.40625 L 436.367188 962.023438 L 502.484375 962.023438 C 479.460938 985.058594 451.222656 1007.34375 419.277344 999.171875 C 411.105469 996.945312 400.707031 987.273438 398.46875 980.59375 C 379.890625 993.96875 370.242188 1003.625 343.492188 1003.625 C 320.457031 1003.625 308.570312 976.875 307.832031 961.273438 C 306.34375 938.238281 313.773438 910.75 345.730469 881.03125 C 359.84375 867.65625 384.355469 858.738281 404.421875 864.691406 C 411.855469 866.179688 418.539062 869.894531 424.480469 878.804688 Z M 361.332031 958.308594 C 370.25 965.738281 386.59375 956.078125 395.511719 945.671875 C 405.171875 933.042969 416.320312 912.988281 403.683594 904.066406 C 391.796875 895.894531 373.226562 909.269531 363.558594 924.875 C 357.617188 935.261719 353.160156 950.875 361.332031 958.308594 Z M 361.332031 958.308594 "/>
<path style=" stroke:none;fill-rule:evenodd;fill:rgb(0%,0%,0%);fill-opacity:1;" d="M 563.417969 869.144531 C 578.269531 867.65625 594.621094 864.691406 602.054688 876.578125 C 608.734375 887.726562 605.019531 897.375 594.621094 924.125 L 580.496094 962.023438 L 644.394531 962.023438 C 619.132812 988.761719 590.894531 1001.398438 564.15625 1001.398438 C 557.464844 1001.398438 543.347656 998.421875 538.15625 988.761719 C 531.472656 977.625 537.40625 959.785156 547.074219 934.53125 L 559.710938 901.101562 L 534.449219 901.101562 L 514.390625 953.851562 C 514.390625 953.851562 506.957031 969.453125 471.296875 982.828125 C 486.152344 960.535156 506.210938 904.816406 504.730469 898.871094 C 498.789062 880.304688 508.445312 854.292969 517.359375 845.382812 C 522.5625 840.925781 527.757812 840.179688 532.222656 840.925781 C 537.414062 842.414062 541.878906 844.644531 542.621094 850.585938 C 544.097656 855.042969 543.359375 860.246094 541.132812 871.394531 Z M 563.417969 869.144531 "/>
<path style=" stroke:none;fill-rule:evenodd;fill:rgb(0%,0%,0%);fill-opacity:1;" d="M 744.703125 780.734375 L 709.042969 874.351562 C 725.386719 860.234375 742.476562 860.976562 753.625 864.691406 C 764.773438 867.65625 772.941406 875.839844 775.917969 894.40625 C 779.636719 915.953125 767.75 953.09375 746.941406 976.875 C 727.625 999.171875 697.90625 1005.855469 678.585938 1003.625 C 666.699219 1002.136719 648.132812 997.683594 639.210938 982.820312 C 629.550781 966.46875 637.722656 945.671875 651.097656 912.238281 L 701.613281 780.726562 L 744.703125 780.726562 Z M 683.035156 966.46875 C 697.886719 971.671875 711.261719 951.613281 717.214844 940.46875 C 723.898438 927.839844 733.558594 903.316406 719.441406 900.339844 C 707.554688 898.113281 691.953125 912.96875 683.042969 936.011719 C 678.578125 945.671875 674.121094 963.511719 683.035156 966.46875 Z M 817.503906 962.011719 C 791.503906 989.503906 772.921875 1001.390625 737.261719 1001.390625 C 754.34375 989.503906 764.753906 975.386719 770.695312 962.011719 Z M 817.503906 962.011719 "/>
<path style=" stroke:none;fill-rule:evenodd;fill:rgb(0%,0%,0%);fill-opacity:1;" d="M 966.847656 965.730469 C 938.617188 992.480469 910.390625 1001.390625 883.640625 1001.390625 C 862.09375 1001.390625 851.695312 1001.390625 837.582031 997.671875 C 825.695312 994.695312 813.058594 983.558594 810.089844 966.46875 C 804.148438 936.011719 821.976562 898.125 840.558594 883.261719 C 865.078125 863.203125 885.136719 859.488281 905.933594 864.691406 C 916.332031 867.65625 925.253906 876.578125 928.230469 888.464844 C 931.945312 901.101562 926.742188 915.953125 915.59375 928.589844 C 897.023438 948.648438 877.695312 956.089844 850.957031 965.738281 L 966.847656 965.738281 Z M 889.582031 907.042969 C 890.324219 904.816406 892.550781 900.351562 891.8125 898.125 C 891.8125 895.148438 885.867188 892.179688 875.46875 898.125 C 868.777344 902.578125 856.152344 915.953125 855.410156 930.808594 C 869.515625 927.101562 885.859375 915.953125 889.582031 907.042969 Z M 889.582031 907.042969 "/>
<path style=" stroke:none;fill-rule:evenodd;fill:rgb(0%,0%,0%);fill-opacity:1;" d="M 1027.769531 869.144531 C 1041.882812 867.65625 1058.964844 864.691406 1066.398438 876.578125 C 1073.089844 887.726562 1069.382812 897.375 1058.964844 924.125 L 1044.113281 962.023438 L 1108.757812 962.023438 C 1083.488281 988.761719 1054.519531 1001.398438 1028.507812 1001.398438 C 1021.078125 1001.398438 1007.703125 998.421875 1001.757812 988.761719 C 995.816406 977.625 1001.757812 959.785156 1010.6875 934.53125 L 1023.304688 901.101562 L 998.792969 901.101562 L 978.734375 953.851562 C 978.734375 953.851562 970.5625 969.453125 935.640625 982.828125 C 949.765625 960.535156 970.5625 904.816406 968.324219 898.871094 C 963.140625 880.304688 972.050781 854.292969 981.699219 845.382812 C 986.90625 840.925781 991.371094 840.179688 996.554688 840.925781 C 1001.019531 842.414062 1005.484375 844.644531 1006.960938 850.585938 C 1007.703125 855.042969 1007.703125 860.246094 1004.734375 871.394531 Z M 1027.769531 869.144531 "/>
<path style=" stroke:none;fill-rule:evenodd;fill:rgb(0%,0%,0%);fill-opacity:1;" d="M 1197.902344 906.292969 L 1201.625 921.898438 C 1206.8125 941.957031 1207.570312 949.398438 1199.390625 962.023438 L 1255.117188 962.023438 C 1231.351562 985.058594 1211.285156 1001.398438 1196.429688 1001.398438 L 1116.199219 1001.398438 L 1127.339844 965 C 1145.179688 965 1150.363281 965 1157.054688 956.089844 C 1163.746094 947.910156 1157.792969 926.363281 1155.578125 915.964844 L 1153.347656 905.566406 L 1110.257812 965.75 C 1110.257812 965.75 1094.644531 979.125 1063.449219 988.035156 C 1089.460938 960.542969 1132.550781 902.597656 1148.882812 854.300781 L 1196.441406 854.300781 C 1191.957031 878.066406 1191.21875 879.542969 1197.902344 906.292969 Z M 1197.902344 906.292969 "/>
<path style=" stroke:none;fill-rule:evenodd;fill:rgb(0%,0%,0%);fill-opacity:1;" d="M 1356.164062 780.734375 L 1318.265625 878.804688 C 1326.457031 871.375 1350.21875 858.007812 1371.027344 860.976562 C 1378.460938 862.464844 1388.109375 867.667969 1391.085938 875.839844 C 1395.53125 886.984375 1391.085938 904.816406 1382.914062 925.613281 L 1368.800781 962.023438 L 1437.882812 962.023438 C 1418.585938 983.570312 1381.417969 1001.398438 1357.652344 1001.398438 C 1348.003906 1001.398438 1335.367188 998.421875 1328.675781 988.761719 C 1323.46875 980.59375 1321.980469 970.195312 1331.640625 943.453125 L 1341.308594 918.191406 C 1346.496094 905.566406 1346.496094 904.078125 1345.753906 900.359375 C 1345.753906 898.132812 1342.789062 897.382812 1339.8125 897.382812 C 1319.765625 897.382812 1299.707031 924.875 1287.070312 960.535156 L 1273.695312 998.433594 L 1229.125 998.433594 L 1312.34375 780.746094 L 1356.164062 780.746094 Z M 1356.164062 780.734375 "/>
<path style=" stroke:none;fill-rule:evenodd;fill:rgb(0%,0%,0%);fill-opacity:1;" d="M 1556.011719 933.042969 C 1548.582031 962.023438 1511.441406 1019.976562 1455.714844 999.910156 C 1425.996094 989.511719 1420.054688 953.101562 1437.875 912.976562 C 1452.746094 880.292969 1477.257812 859.476562 1515.15625 863.203125 C 1545.625 866.179688 1567.160156 889.203125 1556.011719 933.042969 Z M 1478.746094 963.511719 C 1494.351562 968.707031 1508.484375 948.648438 1514.40625 930.066406 C 1518.132812 915.214844 1515.90625 905.546875 1504.757812 901.839844 C 1492.121094 898.125 1479.488281 913.726562 1473.5625 927.101562 C 1468.347656 939.726562 1466.871094 959.785156 1478.746094 963.511719 Z M 1606.546875 962.011719 C 1577.558594 1001.390625 1556.011719 1001.390625 1522.570312 1001.390625 C 1538.183594 989.503906 1548.582031 976.867188 1556.011719 962.011719 Z M 1606.546875 962.011719 "/>
<path style=" stroke:none;fill-rule:evenodd;fill:rgb(0%,0%,0%);fill-opacity:1;" d="M 1678.605469 873.609375 C 1693.457031 864.691406 1713.527344 860.234375 1727.640625 865.441406 C 1735.074219 867.667969 1743.242188 872.871094 1746.960938 881.78125 C 1752.144531 894.417969 1749.1875 930.816406 1723.175781 962.023438 L 1792.277344 962.023438 C 1775.199219 985.058594 1755.140625 1001.398438 1695.6875 1001.398438 C 1656.320312 1001.398438 1651.117188 996.945312 1636.261719 986.546875 L 1593.910156 1094.273438 L 1550.058594 1094.273438 L 1648.128906 838.699219 L 1691.242188 838.699219 Z M 1654.820312 958.308594 C 1666.71875 965.738281 1686.777344 948.648438 1694.945312 931.554688 C 1700.890625 919.667969 1707.582031 901.101562 1695.6875 896.636719 C 1684.546875 892.179688 1669.695312 905.554688 1660.765625 922.636719 C 1654.082031 935.261719 1647.390625 953.851562 1654.820312 958.308594 Z M 1654.820312 958.308594 "/>
</g>
</svg>
