<?xml version="1.0" encoding="iso-8859-1"?>
<!-- Generator: Adobe Illustrator 19.0.0, SVG Export Plug-In . SVG Version: 6.00 Build 0)  -->
<svg version="1.1" id="Layer_1" xmlns="http://www.w3.org/2000/svg" xmlns:xlink="http://www.w3.org/1999/xlink" x="0px" y="0px"
	 viewBox="0 0 459.269 459.269" style="enable-background:new 0 0 459.269 459.269;" xml:space="preserve">
<g id="XMLID_734_">
	<g>
		<g>
			<path d="M310.689,212.332c2.204,2.146,4.176,4.47,5.907,6.936v-26.387l-22.277,3.199c-5.957,0.858-11.926-0.243-17.159-3.116
				c-1.092,1.988-2.339,3.879-3.716,5.665h3.61C289.671,198.629,301.616,203.495,310.689,212.332z"/>
			<circle cx="275.502" cy="32.291" r="32.291"/>
			<path d="M184.224,360.507l-25.768-26.206l-5.909,2.936c-8.946,4.445-12.688,15.234-8.414,24.263l36.609,77.356
				c3.132,6.619,9.716,10.496,16.583,10.496c0.001,0,0.001,0,0.003,0c2.627,0,5.297-0.568,7.83-1.766
				c9.154-4.331,13.062-15.262,8.73-24.415L184.224,360.507z"/>
			<path d="M318.973,337.237l-5.775-2.869l-26.041,26.484l-29.524,62.319c-4.333,9.153-0.424,20.084,8.73,24.416
				c2.53,1.198,5.197,1.766,7.823,1.766c0.003,0,0.005,0,0.007,0c6.868,0,13.453-3.876,16.586-10.496l36.609-77.356
				C331.661,352.471,327.92,341.682,318.973,337.237z"/>
			<path d="M256.914,352.884c6.015,5.916,15.69,5.836,21.608-0.182l36.26-36.876c3.19-3.243,4.767-7.739,4.306-12.264
				c0,0-6.215-63.704-7.832-68.4c-4.889-14.199-18.394-24.447-34.201-24.447h-0.001h-17.971c-6.072,3.195-12.977,5.013-20.301,5.013
				c-6.985,0-13.988-1.691-20.301-5.013h-23.815c-17.888,0-32.827,13.124-35.665,30.247c-0.265,1.599-0.433,3.231-0.48,4.892
				l-5.887,57.707c-0.461,4.525,1.117,9.021,4.306,12.264l36.26,36.876c5.918,6.019,15.592,6.097,21.608,0.182
				c6.017-5.917,6.098-15.591,0.182-21.608l-31.225-31.756c1.861-18.242,1.445-14.16,5.224-51.2
				c0.102-1.007-0.496-7.046,6.307-7.046v53.041l28.159,28.638c5.37,5.461,7.952,12.618,7.776,19.714h9.263
				c-0.177-7.097,2.405-14.253,7.775-19.714l27.961-28.436v-53.243h0.827c3.072,0,5.584,2.5,5.6,5.572
				c0.007,1.107-0.326-2.486,5.302,52.674l-31.225,31.756C250.815,337.293,250.897,346.968,256.914,352.884z"/>
			<path d="M330.948,424.117c-2.636,5.969-11.67,22.52-30.945,22.98c-0.281,0.007-0.563,0.011-0.847,0.011
				c-1.072,0.003-1.496,1.404-0.601,1.996c0.019,0.012,0.037,0.025,0.056,0.037c5.284,3.479,17.256,9.247,31.9,2.781
				c7.363-3.251,10.064-13.034,2.411-27.849C332.501,423.259,331.319,423.279,330.948,424.117z"/>
			<path d="M410.828,431.23c-0.097-0.91-1.208-1.313-1.855-0.668c-4.715,4.7-19.622,17.243-38.253,9.78
				c-0.971-0.389-1.878,0.684-1.334,1.578c3.445,5.657,12.723,17.4,29.084,14.389C406.529,454.826,412.581,447.72,410.828,431.23z"
				/>
			<path d="M400.998,421.143c0.757-0.515,0.585-1.688-0.293-1.951c-6.397-1.914-24.586-9.08-26.826-29.117
				c-0.114-1.017-1.453-1.325-2-0.46c-3.716,5.878-10.962,20.712,1.189,32.603C378.529,427.562,387.364,430.443,400.998,421.143z"/>
			<path d="M91.403,428.542c-2.673,6.061-11.923,23.005-31.767,23c-1.085,0-1.517,1.398-0.611,1.996
				c5.268,3.477,17.267,9.284,31.941,2.805c7.363-3.251,10.064-13.033,2.412-27.847C92.957,427.681,91.773,427.703,91.403,428.542z"
				/>
			<path d="M158.547,430.563c-4.714,4.699-19.621,17.243-38.252,9.779c-0.971-0.389-1.878,0.684-1.334,1.578
				c3.445,5.657,12.723,17.4,29.084,14.389c8.059-1.483,14.111-8.589,12.357-25.079
				C160.305,430.321,159.194,429.917,158.547,430.563z"/>
			<path d="M150.574,421.143c0.756-0.515,0.583-1.688-0.294-1.951c-6.397-1.914-24.586-9.08-26.826-29.117
				c-0.114-1.017-1.452-1.325-1.999-0.46c-3.716,5.878-10.963,20.712,1.189,32.603C128.105,427.562,136.94,430.443,150.574,421.143z
				"/>
			<path d="M238.782,140.307c-17.489,0-31.667,14.178-31.667,31.667s14.178,31.667,31.667,31.667
				c12.987,0,24.143-7.822,29.028-19.008c-2.475-3.482-4.178-7.563-4.816-12.006c-0.847-5.895,0.201-11.77,2.956-16.925
				C260.415,146.481,250.321,140.307,238.782,140.307z"/>
			<path d="M378.424,159.467c0.276-3.711-0.767-7.224-2.674-9.99c-5.174-7.715-39.87-59.449-45.403-67.698
				c-2.893-4.314-7.745-6.903-12.94-6.903c-4.514,0-59.346,0-83.811,0c-3.109,0-6.147,0.93-8.724,2.671l-48.486,32.764
				l-53.466-9.468c6.926-2.354,12.171-8.502,13.076-16.127c1.265-10.66-6.378-20.361-17.037-21.627
				c-7.677-0.912-15.078,2.787-19.008,9.382l-3.565-0.423l1.421-11.974c0.983-8.282-2.621-16.442-9.404-21.294
				c-0.771-0.552-1.776-0.655-2.644-0.272c-0.868,0.383-1.468,1.196-1.58,2.137l-3.506,29.538l-29.538-3.506
				c-0.942-0.112-1.872,0.282-2.448,1.036c-0.576,0.754-0.71,1.755-0.354,2.634c3.13,7.73,10.22,13.144,18.502,14.127l11.974,1.421
				l-0.422,3.556c-7.172,2.223-12.645,8.486-13.571,16.293c-1.375,11.587,7.661,21.764,19.348,21.764
				c6.65,0,12.585-3.373,16.104-8.572c1.394,5.859,6.133,10.627,12.44,11.744l64.458,11.415c4.02,0.711,8.115-0.185,11.441-2.432
				l45.462-30.72v19.538c1.549-0.167,3.121-0.258,4.714-0.258c14.526,0,27.414,7.122,35.376,18.05
				c3.588-2.603,7.776-4.314,12.289-4.961l30.15-4.33V117.22c7.473,11.142,12.586,18.766,19.557,29.161l-47.988,6.892
				c-8.619,1.238-14.414,9.238-13.208,17.638c1.205,8.39,8.943,14.372,17.492,13.223c0.048-0.007,0.097-0.009,0.145-0.016
				c10.016-1.438,62.65-8.997,72.515-10.414C372.194,172.688,377.858,166.883,378.424,159.467z M90.478,108.789
				c-0.411,3.46-3.589,5.991-7.082,5.58c-3.499-0.415-5.995-3.582-5.58-7.082c0.409-3.445,3.517-5.998,7.082-5.579
				C88.396,102.122,90.893,105.289,90.478,108.789z M103.423,105.416c-0.788-5.867-4.17-11.032-9.324-14.101l0.422-3.555
				l3.555,0.422c1.827,5.889,6.253,10.485,11.989,12.541C107.478,101.674,105.182,103.293,103.423,105.416z M115.913,88.751
				c-3.498-0.415-5.995-3.582-5.58-7.081c0.409-3.444,3.517-6,7.082-5.58c3.491,0.415,5.994,3.591,5.58,7.082
				C122.585,86.633,119.412,89.171,115.913,88.751z"/>
		</g>
	</g>
</g>
<g>
</g>
<g>
</g>
<g>
</g>
<g>
</g>
<g>
</g>
<g>
</g>
<g>
</g>
<g>
</g>
<g>
</g>
<g>
</g>
<g>
</g>
<g>
</g>
<g>
</g>
<g>
</g>
<g>
</g>
</svg>
