<svg id="Group_22" data-name="Group 22" xmlns="http://www.w3.org/2000/svg" viewBox="0 0 93.867 152.843">
  <defs>
    <style>
      .cls-1 {
        fill: #fff;
      }
    </style>
  </defs>
  <g id="Group_20" data-name="Group 20" transform="translate(0 0.655)">
    <line id="Line_4" data-name="Line 4" class="cls-1" y2="0.899" transform="translate(10.855 130.218)"/>
    <line id="Line_5" data-name="Line 5" class="cls-1" y2="0.3" transform="translate(10.71 125.421)"/>
    <line id="Line_6" data-name="Line 6" class="cls-1" y1="0.75" transform="translate(10.71 119.275)"/>
    <path id="Path_34" data-name="Path 34" class="cls-1" d="M191.81,480.2a6.222,6.222,0,0,0,1.3-3.3l-23.157.3v-1.8h-1.447V473.75h1.447v-2.1h-1.447V470h1.447v-2.1h-1.447v-1.649h1.447v-1.949h-1.447v-1.649h1.447v-1.049h0v-1.049h-1.3v-1.649h1.3v-2.1h-1.3v-1.649h1.3v-2.1h-1.3v-1.649h1.3v-2.1h-1.3v-1.649h1.3v-2.1h-1.3v-1.649h1.3v-2.1h-1.3v-1.649h1.3v-2.1h-1.3v-1.649h1.3v-2.1h-1.3v-1.649h1.3v-2.1h-1.3v-1.649h1.3v-2.1h-1.3v-1.649h1.3v-2.1h-1.3V421.43h1.3v-2.1h-1.3v-1.649h1.3v-2.1h-1.3v-1.649h1.3v-2.1h-1.3v-1.649h1.3v-2.1h-1.3v-1.649h1.3v-2.1h-1.3v-1.649h1.3v-2.1h-1.3v-1.649h1.3v-2.1h-1.3V395.2h1.3v-2.1h-1.3v-1.649h1.3v-2.1h-1.3V387.7h1.3v-2.1h-1.3v-1.649h1.3v-2.1h-1.3V380.2h1.3v-2.1h-1.3v-1.649h1.3v-2.1h-1.3v-1.649h1.3v-2.1h-1.3v-1.649h1.3v-2.1h-1.3v-1.649h1.3v-2.1h-1.3v-1.649h1.3v-2.1h-1.3v-1.649h1.3v-2.1h-1.3V353.97h1.3v-2.1h-1.3v-1.649h1.3v-2.1h-1.3v-1.649h1.737v-1.649l23.157-.15a6.851,6.851,0,0,0-1.447-3.3c-11-8.845-20.7-8.695-31.552.3-.868.75-1.447,2.848-1.447,4.347q.651,65.436,1.3,130.873a7.173,7.173,0,0,0,1.592,4.347C171.258,489.191,181.1,489.041,191.81,480.2Z" transform="translate(-159.1 -334.837)"/>
    <path id="Path_35" data-name="Path 35" class="cls-1" d="M165.7,429.149h1.447l23.013-.3V427.2L167,427.5h-1.3Z" transform="translate(-156.148 -288.737)"/>
    <path id="Path_36" data-name="Path 36" class="cls-1" d="M165.6,425l.145,1.649h1.3l23.157-.3V424.7l-23.157.3Z" transform="translate(-156.192 -289.984)"/>
    <path id="Path_37" data-name="Path 37" class="cls-1" d="M165.6,424.149h1.447l23.157-.3-.145-1.649-23.013.3H165.6Z" transform="translate(-156.192 -291.232)"/>
    <path id="Path_38" data-name="Path 38" class="cls-1" d="M165.6,421.649h1.447l23.013-.3V419.7l-23.013.3H165.6Z" transform="translate(-156.192 -292.48)"/>
    <path id="Path_39" data-name="Path 39" class="cls-1" d="M165.645,419.149h1.3l23.157-.3V417.2l-23.157.3H165.5Z" transform="translate(-156.237 -293.728)"/>
    <path id="Path_40" data-name="Path 40" class="cls-1" d="M165.5,416.649h1.447l23.157-.3-.145-1.649-23.013.3H165.5Z" transform="translate(-156.237 -294.976)"/>
    <path id="Path_41" data-name="Path 41" class="cls-1" d="M165.5,414.2h1.3l23.157-.3v-1.8l-23.157.3-1.3.15Z" transform="translate(-156.237 -296.273)"/>
    <path id="Path_42" data-name="Path 42" class="cls-1" d="M165.545,411.7h1.3L190,411.4v-1.8l-23.157.3-1.447.15Z" transform="translate(-156.282 -297.521)"/>
    <path id="Path_43" data-name="Path 43" class="cls-1" d="M165.4,409.2h1.447l23.157-.45-.145-1.649-23.013.3H165.4Z" transform="translate(-156.282 -298.769)"/>
    <path id="Path_44" data-name="Path 44" class="cls-1" d="M165.4,406.7l1.3-.15,23.157-.3V404.6l-23.157.3h-1.3Z" transform="translate(-156.282 -300.017)"/>
    <path id="Path_45" data-name="Path 45" class="cls-1" d="M165.4,404.049h1.3l23.157-.3V402.1l-23.157.3h-1.3Z" transform="translate(-156.282 -301.264)"/>
    <path id="Path_46" data-name="Path 46" class="cls-1" d="M165.3,401.549h1.447l23.157-.3V399.6l-23.157.3H165.3Z" transform="translate(-156.327 -302.512)"/>
    <path id="Path_47" data-name="Path 47" class="cls-1" d="M165.3,399.049h1.3l23.157-.3V397.1l-23.157.3h-1.3Z" transform="translate(-156.327 -303.76)"/>
    <path id="Path_48" data-name="Path 48" class="cls-1" d="M165.3,396.549h1.3l23.157-.3V394.6l-23.157.3h-1.3Z" transform="translate(-156.327 -305.008)"/>
    <path id="Path_49" data-name="Path 49" class="cls-1" d="M165.2,394.049h1.447l23.157-.3V392.1l-23.157.3H165.2Z" transform="translate(-156.371 -306.256)"/>
    <path id="Path_50" data-name="Path 50" class="cls-1" d="M165.2,391.549h1.3l23.157-.3V389.6l-23.157.3h-1.3Z" transform="translate(-156.371 -307.503)"/>
    <path id="Path_51" data-name="Path 51" class="cls-1" d="M165.2,389.049h1.3l23.157-.3V387.1l-23.157.3h-1.3Z" transform="translate(-156.371 -308.751)"/>
    <path id="Path_52" data-name="Path 52" class="cls-1" d="M165.1,386.549h1.447l23.157-.3V384.6l-23.157.3H165.1Z" transform="translate(-156.416 -309.999)"/>
    <path id="Path_53" data-name="Path 53" class="cls-1" d="M165.1,384.049h1.447l23.013-.3V382.1l-23.157.3h-1.3Z" transform="translate(-156.416 -311.247)"/>
    <path id="Path_54" data-name="Path 54" class="cls-1" d="M165.1,381.549h1.3l23.157-.3V379.6l-23.157.3h-1.3Z" transform="translate(-156.416 -312.495)"/>
    <path id="Path_55" data-name="Path 55" class="cls-1" d="M165,379.1h1.447l23.157-.3V377l-23.157.3-1.447.15Z" transform="translate(-156.461 -313.792)"/>
    <path id="Path_56" data-name="Path 56" class="cls-1" d="M165,376.6h1.447l23.157-.3-.145-1.8-23.157.3-1.3.15Z" transform="translate(-156.461 -315.04)"/>
    <path id="Path_57" data-name="Path 57" class="cls-1" d="M165,374.1l1.3-.15,23.157-.3V372l-23.157.3H165Z" transform="translate(-156.461 -316.288)"/>
    <path id="Path_58" data-name="Path 58" class="cls-1" d="M165.045,371.6l1.3-.15,23.157-.3V369.5l-23.157.3H164.9Z" transform="translate(-156.505 -317.536)"/>
    <path id="Path_59" data-name="Path 59" class="cls-1" d="M164.9,368.949h1.447l23.157-.3L189.36,367l-23.157.3h-1.3Z" transform="translate(-156.505 -318.783)"/>
    <path id="Path_60" data-name="Path 60" class="cls-1" d="M164.9,366.449h1.3l23.157-.3V364.5l-23.157.3h-1.3Z" transform="translate(-156.505 -320.031)"/>
    <path id="Path_61" data-name="Path 61" class="cls-1" d="M164.945,363.949h1.3l23.157-.3V362l-23.157.3H164.8Z" transform="translate(-156.55 -321.279)"/>
    <path id="Path_62" data-name="Path 62" class="cls-1" d="M164.8,361.449h1.447l23.157-.3-.145-1.649-23.013.3H164.8Z" transform="translate(-156.55 -322.527)"/>
    <path id="Path_63" data-name="Path 63" class="cls-1" d="M164.8,358.949h1.3l23.157-.3V357l-23.157.3h-1.3Z" transform="translate(-156.55 -323.775)"/>
    <path id="Path_64" data-name="Path 64" class="cls-1" d="M164.8,356.449h1.3l23.157-.3V354.5l-23.157.3h-1.3Z" transform="translate(-156.55 -325.022)"/>
    <path id="Path_65" data-name="Path 65" class="cls-1" d="M164.7,353.949h1.447l23.157-.3V352l-23.157.3H164.7Z" transform="translate(-156.595 -326.27)"/>
    <path id="Path_66" data-name="Path 66" class="cls-1" d="M164.7,351.449H166l23.157-.3V349.5L166,349.8h-1.3Z" transform="translate(-156.595 -327.518)"/>
    <path id="Path_67" data-name="Path 67" class="cls-1" d="M164.7,348.949H166l23.157-.3V347L166,347.3h-1.3Z" transform="translate(-156.595 -328.766)"/>
    <path id="Path_68" data-name="Path 68" class="cls-1" d="M164.6,346.449h1.447l23.157-.3V344.5l-23.157.3H164.6Z" transform="translate(-156.64 -330.014)"/>
    <path id="Path_69" data-name="Path 69" class="cls-1" d="M164.6,344h1.3l23.157-.3v-1.8l-22.723.3-1.737.15Z" transform="translate(-156.64 -331.311)"/>
  </g>
  <g id="Group_21" data-name="Group 21" transform="translate(43.578)">
    <path id="Path_70" data-name="Path 70" class="cls-1" d="M222.862,350.141a1.951,1.951,0,0,0,1.882-1.949V336.349a1.951,1.951,0,0,0-1.882-1.949H198.982a1.951,1.951,0,0,0-1.882,1.949v11.843a1.951,1.951,0,0,0,1.882,1.949" transform="translate(-185.68 -334.4)"/>
    <path id="Path_71" data-name="Path 71" class="cls-1" d="M202.511,346.7h-.724c-7.092,0-2.171,25.335-3.908,55.617s-1.737,52.319-5.934,60.564-2.316,13.792-2.316,13.792h49.5s1.737-5.547-2.316-13.792c-4.2-8.245-4.2-30.282-5.934-60.564s3.184-55.617-3.908-55.617h-.724" transform="translate(-189.209 -328.261)"/>
    <rect id="Rectangle_4" data-name="Rectangle 4" class="cls-1" width="49.788" height="3.148" transform="translate(50.162 152.774) rotate(180)"/>
  </g>
</svg>
