<svg id="Group_53" data-name="Group 53" xmlns="http://www.w3.org/2000/svg" viewBox="0 0 92.277 153.068">
  <defs>
    <style>
      .cls-1, .cls-2 {
        fill: #fff;
      }

      .cls-1 {
        opacity: 0.37;
      }
    </style>
  </defs>
  <path id="Path_72" data-name="Path 72" class="cls-1" d="M240.8,246.655s-3.039,55.467-36.473,60.714c-33.578,5.247-43.709-33.88-44.578-40.926s-1.3-20.238-1.3-20.238l-.434-21.587s-.724-31.032,3.039-39.577c7.671-17.839,28.512-19.489,39.223-19.339,10.421.15,24.026,2.848,32.71,12.293,7.526,7.945,9.408,17.39,9.7,30.282.145,8.845,0,16.34,0,16.34Z" transform="translate(-153.714 -165.694)"/>
  <path id="Path_73" data-name="Path 73" class="cls-2" d="M247.038,215.7c-.434-13.342-1.882-16.79-4.921-15.291-3.184,1.5-4.2,16.34-4.776,22.037s-1.592,12.143-4.342,15.891c-2.895,3.6-6.079-.75-11.434-5.7-5.066-4.5-8.25-6.446-12.736-7.046a9.483,9.483,0,0,0-7.671,2.7c-.434-.45-3.618-3.3-7.671-2.7-4.487.6-7.671,2.548-12.737,7.046-5.355,4.947-8.684,9.295-11.434,5.7-2.895-3.6-3.763-10.044-4.342-15.891-.579-5.7-1.737-20.538-4.776-22.037-3.184-1.5-4.487,1.949-4.921,15.291s-.868,27.434,3.908,41.526c3.474,10.194,8.539,14.991,8.539,14.991s-.145-5.7.145-6.446,1.882,7.8,7.816,16.94c6.658,10.044,12.013,13.042,12.013,13.042l-1.158-7.2A26.855,26.855,0,0,0,201.3,301.6a3.851,3.851,0,0,1,.145-1.2,3.411,3.411,0,0,0,.145,1.2,26.854,26.854,0,0,0,14.763-13.042l-1.158,7.2s5.355-3,12.013-13.042c5.934-9.145,7.526-17.69,7.816-16.94s.145,6.446.145,6.446,5.066-4.8,8.539-14.991C247.907,243.133,247.472,229.041,247.038,215.7Zm-35.17,32.231c-9.408-2.549-10.855-2.7-21.71,0-6.947,1.649-8.829-2.1-8.829-2.1s10.131-4.5,13.315-6.746a60.038,60.038,0,0,0,6.368-5.1,60.041,60.041,0,0,0,6.368,5.1c3.184,2.249,13.315,6.746,13.315,6.746S218.671,249.879,211.868,247.93Z" transform="translate(-155.027 -148.53)"/>
</svg>
