<svg id="Group_54" data-name="Group 54" xmlns="http://www.w3.org/2000/svg" viewBox="0 0 61.105 152.91">
  <defs>
    <style>
      .cls-1 {
        fill: #fff;
      }
    </style>
  </defs>
  <path id="Path_23" data-name="Path 23" class="cls-1" d="M22.51,205.3H20.774v26.235s-3.474-.9-3.474-3.148V202.3a2.577,2.577,0,0,1,2.605-2.4H22.51v5.4Z" transform="translate(-17.3 -152.528)"/>
  <path id="Path_24" data-name="Path 24" class="cls-1" d="M76.2,168.3H73.306v19.189H72.293V168.3H68.386v19.189H67.372V168.3H64.044v19.189H63.03V168.3H59.412v19.189H58.4V168.3H54.781v19.189H53.768V168.3h-2.75v19.189H50V168.3h-4.2v19.189H44.794V168.3H41.32v19.189H40.307V168.3H37.268v19.189H36.255V168.3H32.781v19.189H31.768V168.3H28.729v19.189H27.716V168.3H24.1v19.189H23.084V168.3H21.058a1.268,1.268,0,0,0-1.158,1.2v26.085c0,.45.434.75.724.6,4.776-1.5,30.539-8.845,55.722,0a.64.64,0,0,0,.868-.6V169.5A.978.978,0,0,0,76.2,168.3Z" transform="translate(-16.137 -168.3)"/>
  <g id="Group_16" data-name="Group 16" transform="translate(8.395 29.233)">
    <path id="Path_25" data-name="Path 25" class="cls-1" d="M32.652,188A12.75,12.75,0,0,0,23.1,200.443v98.042a12.765,12.765,0,0,0,9.7,12.593C39.889,254.411,33.376,193.847,32.652,188Z" transform="translate(-23.1 -187.7)"/>
    <path id="Path_26" data-name="Path 26" class="cls-1" d="M50.848,188c-1.013,8.545-7.092,67.91,0,123.077A12.75,12.75,0,0,0,60.4,298.635V200.593A12.492,12.492,0,0,0,50.848,188Z" transform="translate(-12.204 -187.7)"/>
    <path id="Path_27" data-name="Path 27" class="cls-1" d="M55.9,187.8H31.3c.579,5.547,7.237,66.711.145,123.677h24.6C48.813,255.86,54.891,196.345,55.9,187.8Z" transform="translate(-19.432 -187.8)"/>
  </g>
</svg>
