<svg id="Group_19" data-name="Group 19" xmlns="http://www.w3.org/2000/svg" viewBox="0 0 76.225 152.811">
  <defs>
    <style>
      .cls-1 {
        fill: #fff;
      }
    </style>
  </defs>
  <path id="Path_31" data-name="Path 31" class="cls-1" d="M39.024,54.9,23.682,83.383c-.579.15-1.3.3-1.882.45-6.658,2.249-11,9.894-10.276,17.989a18.826,18.826,0,0,0,5.21,11.693,12.983,12.983,0,0,0,10.855,4.2,19.869,19.869,0,0,0,2.895-.6c5.066-1.8,8.829-6.6,9.987-12.443a2.385,2.385,0,0,0,1.013-.15,3.953,3.953,0,0,0,2.46-4.947,3.76,3.76,0,0,0-3.474-2.7,18.905,18.905,0,0,0-4.921-9.594,14.459,14.459,0,0,0-5.21-3.448L47.129,57.149ZM32.511,90.879a14.535,14.535,0,0,1,3.908,8.845c.579,6.146-2.46,11.693-7.092,13.192-.579.15-1.3.3-1.882.45a8.834,8.834,0,0,1-7.381-3,14.535,14.535,0,0,1-3.908-8.845c-.579-6.146,2.46-11.693,7.092-13.192.579-.15,1.3-.3,1.882-.45a9.3,9.3,0,0,1,7.381,3Zm0,0" transform="translate(-11.446 27.401)"/>
  <path id="Path_32" data-name="Path 32" class="cls-1" d="M43.889,70.459l5.5-65.212L47.8,1.2,38.1,43.775l5.5,26.984Zm0,0" transform="translate(0.478 0.599)"/>
  <path id="Path_33" data-name="Path 33" class="cls-1" d="M72.875,136.27a23.164,23.164,0,0,0,1.882-6.146c1.158-8.1-2.75-15.891-9.263-18.589a7.965,7.965,0,0,0-1.737-.6L45.521,74.206,30.324,0,29.6,6,33.508,80.2l7.816,2.4,14.184,29.233a13.666,13.666,0,0,0-3.908,2.548,18.306,18.306,0,0,0-5.789,11.393c-1.158,8.1,2.75,16.041,9.263,18.589a16.452,16.452,0,0,0,2.895.75,13.139,13.139,0,0,0,6.368-.75c5.934-.15,9.408,6.746,10.71,7.945s4.776,0,4.487-1.049-8.395-9.444-6.658-14.991Zm-33-59.215a2.325,2.325,0,0,1-2.605-2.1,2.373,2.373,0,0,1,2.026-2.7,2.325,2.325,0,0,1,2.605,2.1,2.151,2.151,0,0,1-2.026,2.7Zm30.539,52.319a13.8,13.8,0,0,1-4.342,8.545,9.693,9.693,0,0,1-7.526,2.548c-.579-.15-1.3-.3-1.882-.45-4.631-1.8-7.381-7.5-6.513-13.642a13.8,13.8,0,0,1,4.342-8.545,9.693,9.693,0,0,1,7.526-2.548c.579.15,1.3.3,1.882.45,4.487,1.949,7.237,7.645,6.513,13.642Zm0,0" transform="translate(-3.325)"/>
</svg>
