<svg id="Group_18" data-name="Group 18" xmlns="http://www.w3.org/2000/svg" viewBox="0 0 121.648 152.792">
  <defs>
    <style>
      .cls-1 {
        fill: #fff;
      }
    </style>
  </defs>
  <path id="Path_28" data-name="Path 28" class="cls-1" d="M77,438.33l8.105,6.9L48.492,336.84a7.875,7.875,0,0,0-7.381-1.949c-4.342,1.2-5.21,5.847-5.21,5.847l21.276,60.414s3.908,5.4,9.408,5.4Z" transform="translate(15.955 -334.618)"/>
  <path id="Path_29" data-name="Path 29" class="cls-1" d="M66.516,421.8h5.789s-4.921,21.587,12.3,16.19a5.5,5.5,0,0,1,.868-2.7c2.171-3.6,7.96-1.5,6.224,3.3-.145.6-2.026,2.4-2.895,3C83.739,444.587,65.358,449.234,66.516,421.8Z" transform="translate(29.627 -291.104)"/>
  <path id="Path_30" data-name="Path 30" class="cls-1" d="M101.86,440.981S58.585,408,17.625,352.233c-2.895-4.048-7.96-6.146-12.592-4.8a7.687,7.687,0,0,0-2.895,1.5c-2.026,1.8-2.171,6-2.026,9.444a11.7,11.7,0,0,0,3.184,7.5c11.579,12.892,59.051,65.361,89.3,89.2,0,0,6.368,6.146,13.026,0C112.281,449.076,101.86,440.981,101.86,440.981ZM9.52,360.628a3.453,3.453,0,1,1,3.184-3.6A3.545,3.545,0,0,1,9.52,360.628Zm89.155,91.9a3.453,3.453,0,1,1,3.184-3.6A3.552,3.552,0,0,1,98.676,452.524Z" transform="translate(-0.072 -328.424)"/>
  <ellipse id="Ellipse_4" data-name="Ellipse 4" class="cls-1" cx="1.592" cy="1.649" rx="1.592" ry="1.649" transform="translate(96.867 119.003)"/>
</svg>
