<?xml version="1.0" encoding="iso-8859-1"?>
<!-- Generator: Adobe Illustrator 16.0.0, SVG Export Plug-In . SVG Version: 6.00 Build 0)  -->
<!DOCTYPE svg PUBLIC "-//W3C//DTD SVG 1.1//EN" "http://www.w3.org/Graphics/SVG/1.1/DTD/svg11.dtd">
<svg version="1.1" id="Capa_1" xmlns="http://www.w3.org/2000/svg" xmlns:xlink="http://www.w3.org/1999/xlink" x="0px" y="0px"
	 width="580.864px" height="580.864px" viewBox="0 0 580.864 580.864" style="enable-background:new 0 0 580.864 580.864;"
	 xml:space="preserve">
<g>
	<path style="fill:#030303;" d="M467.195,352.507c-0.594,1.682-1.274,3.316-1.915,4.975h2.859L467.195,352.507z"/>
	<path style="fill:#030303;" d="M393.496,103.064c-17.846,0-35.08,2.602-51.439,7.291c-16.41-4.711-33.719-7.291-51.625-7.291
		s-35.214,2.579-51.625,7.291c-16.359-4.689-33.593-7.291-51.439-7.291C84.052,103.064,0,187.116,0,290.433
		c0,71.28,40.015,133.378,98.756,165.045c26.4,14.231,56.577,22.322,88.612,22.322c17.895,0,35.186-2.572,51.58-7.284
		c16.371,4.688,33.622,7.284,51.485,7.284c17.894,0,35.186-2.572,51.58-7.284c16.37,4.688,33.616,7.284,51.484,7.284
		c34.611,0,67.032-9.469,94.879-25.896c55.294-32.609,92.489-92.764,92.489-161.477
		C580.864,187.116,496.804,103.064,393.496,103.064z M102.255,430.513c-47.228-28.808-78.834-80.818-78.834-140.08
		c0-90.399,73.548-163.947,163.947-163.947c3.946,0,7.851,0.154,11.728,0.435c-57.24,32.098-96.031,93.344-96.031,163.513
		c0,40.494,12.939,78.005,34.868,108.676C121.239,406.646,108.439,417.589,102.255,430.513z M319.705,390.841v-20.654
		c5.341-3.305,10.185-7.639,14.495-12.699c11.854-13.918,19.321-33.73,19.321-55.848c0-14.31-3.162-27.652-8.56-39.1
		c-10.51-22.274-29.659-37.242-51.603-37.242c-21.911,0-41.026,14.916-51.55,37.125c-5.432,11.47-8.611,24.853-8.611,39.217
		c0,14.323,3.19,27.641,8.605,39.071c5.984,12.643,14.704,22.969,25.208,29.476v20.66c-9.118,1.772-17.543,4.522-25.242,7.925
		c-17.074,7.542-30.171,18.624-36.45,31.752c-16.874-10.298-31.706-23.593-43.86-39.077
		c-21.872-27.875-34.974-62.921-34.974-101.014c0-72.376,47.159-133.902,112.345-155.579c12.694-4.223,26.068-6.921,39.915-7.905
		c3.865-0.274,7.753-0.463,11.688-0.463s7.822,0.188,11.685,0.463c13.849,0.984,27.223,3.683,39.917,7.905
		c62.012,20.622,107.676,77.313,111.976,145.092c0.218,3.474,0.366,6.965,0.366,10.487c0,23.89-5.203,46.567-14.433,67.049
		c-4.717,10.47-10.452,20.391-17.171,29.557c-11.728,16.011-26.274,29.831-42.919,40.712c-6.719-11.933-19.15-22.009-35.012-29.024
		C337.18,395.335,328.774,392.607,319.705,390.841z M482.909,427.75c-7.228-12.849-21.02-23.575-38.659-30.597
		c8.525-12.236,15.593-25.543,21.03-39.666c0.641-1.658,1.321-3.288,1.915-4.969c6.851-19.441,10.602-40.323,10.602-62.086
		c0-70.169-38.791-131.415-96.034-163.513c3.871-0.274,7.788-0.435,11.733-0.435c90.396,0,163.947,73.548,163.947,163.947
		C557.443,347.864,527.738,398.457,482.909,427.75z"/>
</g>
<g>
</g>
<g>
</g>
<g>
</g>
<g>
</g>
<g>
</g>
<g>
</g>
<g>
</g>
<g>
</g>
<g>
</g>
<g>
</g>
<g>
</g>
<g>
</g>
<g>
</g>
<g>
</g>
<g>
</g>
</svg>
